<svg xmlns="http://www.w3.org/2000/svg" width="400" height="300" fill="none" viewBox="0 0 400 300"><path stroke="#4f46e5" stroke-miterlimit="10" stroke-width="5" d="M322.869 65.213c0-13.843-11.222-25.065-25.065-25.065s-25.066 11.222-25.066 25.065v133.683c0 13.843 11.222 25.065 25.066 25.065s25.065-11.222 25.065-25.065zM218.011 65.213c0-13.843-11.222-25.065-25.065-25.065S167.88 51.37 167.88 65.213v133.683c0 13.843 11.223 25.065 25.066 25.065s25.065-11.222 25.065-25.065z"/><path stroke="#4f46e5" stroke-miterlimit="10" stroke-width="5" d="M317.554 80.632c8.53-10.903 6.607-26.656-4.295-35.186s-26.657-6.608-35.187 4.295l-104.67 133.778c-8.53 10.903-6.607 26.657 4.296 35.187 10.902 8.53 26.656 6.607 35.186-4.295zM212.597 80.636c8.53-10.902 6.607-26.656-4.295-35.186s-26.657-6.608-35.187 4.295L68.445 183.523c-8.53 10.903-6.607 26.657 4.296 35.187 10.902 8.53 26.656 6.607 35.186-4.295z"/><rect width="100" height="36" x="223" y="234" fill="#4f46e5" rx="18"/><path fill="#fff" d="M248.622 259v-13.091h4.424q1.54 0 2.518.556.984.55 1.457 1.49t.473 2.096-.473 2.103q-.466.946-1.444 1.509-.978.555-2.506.556h-3.17v-1.407h3.119q1.055 0 1.694-.364t.927-.984q.294-.627.294-1.413t-.294-1.406a2.1 2.1 0 0 0-.933-.972q-.646-.358-1.714-.358h-2.786V259zm12.73-13.091V259h-1.508v-13.091zm8.951 9.077v-5.804h1.508V259h-1.508v-1.662h-.103q-.345.749-1.074 1.272-.728.518-1.84.518-.921 0-1.637-.403-.715-.41-1.125-1.227-.41-.825-.409-2.078v-6.238h1.509v6.136q0 1.074.6 1.713.608.639 1.547.639a2.56 2.56 0 0 0 1.144-.287q.59-.288.985-.882.403-.595.403-1.515m8.234 7.9q-1.093 0-1.879-.281-.786-.274-1.311-.729a4 4 0 0 1-.824-.958l1.202-.844q.205.268.517.614.314.35.857.607.55.261 1.438.262 1.19 0 1.962-.575.774-.576.774-1.803v-1.994h-.128q-.166.268-.473.664-.3.39-.869.697-.562.3-1.522.301-1.188 0-2.135-.563-.939-.562-1.489-1.636-.543-1.075-.543-2.608 0-1.51.53-2.627.53-1.125 1.477-1.739.946-.62 2.186-.62.959 0 1.521.32.57.312.87.715.306.397.473.652h.153v-1.559h1.457v10.099q0 1.266-.575 2.058-.568.8-1.534 1.17-.959.378-2.135.377m-.051-5.395q.907 0 1.534-.415t.952-1.195q.327-.78.326-1.867 0-1.06-.319-1.873-.32-.811-.946-1.272t-1.547-.46q-.959 0-1.598.486-.633.486-.952 1.304a5 5 0 0 0-.314 1.815q0 1.023.32 1.809.326.78.959 1.227.639.441 1.585.441m7.057 1.509v-9.818h1.508V259zm.767-11.455q-.441 0-.761-.3a.96.96 0 0 1-.313-.722q0-.422.313-.723.32-.3.761-.3.44 0 .754.3.32.3.32.723a.96.96 0 0 1-.32.722q-.313.3-.754.3m5.013 5.549V259h-1.509v-9.818h1.458v1.534h.128q.345-.748 1.048-1.202.704-.46 1.815-.46.998 0 1.745.409.748.404 1.164 1.227.415.819.415 2.071V259h-1.509v-6.136q0-1.158-.6-1.803-.602-.652-1.65-.652-.721 0-1.291.313a2.24 2.24 0 0 0-.888.914q-.327.602-.326 1.458"/></svg>